<svg width="512" height="512" viewBox="0 0 512 512" fill="none" xmlns="http://www.w3.org/2000/svg">
<rect width="512" height="512" fill="#2A5CAA"/>
<path d="M165.049 365.307L159.145 363.885L162.1 351.616L132.583 344.508L129.629 356.777L117.822 353.933L120.776 341.665L91.2595 334.556L88.3048 346.825L82.4014 345.403C75.9077 343.839 69.265 348.081 67.64 354.829L55.8213 403.904C54.1962 410.652 58.1797 417.452 64.6734 419.016L147.321 438.92C153.815 440.484 160.457 436.242 162.082 429.495L173.901 380.419C175.526 373.671 171.543 366.871 165.049 365.307ZM153.227 427.362C152.784 429.202 151.308 430.145 149.537 429.718L66.8894 409.815C65.1184 409.388 64.2332 407.877 64.6764 406.037L76.4951 356.961C76.9383 355.121 78.4144 354.178 80.1854 354.605L162.833 374.509C164.604 374.935 165.489 376.446 165.046 378.287L153.227 427.362Z" fill="white"/>
<path d="M105.536 380.31L122.479 384.391L118.035 387.409L119.739 390.318L129.039 384.38L123.876 374.051L121.086 375.65L123.822 381.534L106.26 377.304C104.4 376.857 102.592 377.103 101.042 378.092C97.374 380.616 95.9779 386.413 95.254 389.419L95.1506 389.849L98.2499 390.595L98.405 389.951C98.9738 387.589 100.215 382.436 102.798 380.787C103.573 380.292 104.503 380.061 105.536 380.31V380.31ZM131.981 395.765L132.084 395.336L128.985 394.589L128.83 395.234C128.261 397.595 127.02 402.748 124.437 404.398C123.662 404.893 122.732 405.123 121.492 404.824L104.55 400.744L108.941 397.94L107.237 395.031L98.1959 400.804L103.359 411.134L106.149 409.534L103.413 403.65L120.769 407.83C122.628 408.278 124.436 408.032 125.986 407.042C129.809 404.783 131.257 398.771 131.981 395.765V395.765Z" fill="white"/>
<path d="M402.489 212.701C403.221 221.401 415.51 261.312 398.154 289.619C380.793 317.914 384.406 325.892 382.961 337.509C381.511 349.104 366.327 374.511 358.365 378.861C350.421 383.211 344.631 384.665 344.631 384.665C344.631 384.665 339.568 390.473 331.61 391.919C323.653 393.373 317.149 391.919 313.527 391.919C309.905 391.919 310.406 388.159 311.046 386.241C310.084 383.971 313.941 379.783 316.836 379.141C319.73 378.485 319.731 375.267 323.27 375.913C326.796 376.56 329.046 376.232 331.31 374.621C333.556 373.009 343.839 354.619 342.559 353.012C341.257 351.396 326.474 342.051 325.834 335.273C325.189 328.491 322.295 319.154 319.086 318.818C315.869 318.503 298.186 341.728 295.936 345.916C293.685 350.108 282.114 369.14 279.859 374.944C277.618 380.743 273.761 385.901 267.331 387.517C260.897 389.137 253.183 388.482 252.225 385.591C251.254 382.691 253.505 379.455 253.505 379.455C253.505 379.455 253.832 378.481 256.722 377.193C259.617 375.909 261.219 373.324 261.541 372.04C261.868 370.751 269.264 354.947 270.221 351.069C271.188 347.2 270.866 340.762 269.573 342.37C268.293 343.981 262.499 353.331 257.044 356.563C251.577 359.777 224.904 376.56 220.717 379.778C216.542 382.992 205.929 388.805 201.432 388.154C194.027 390.102 192.112 389.132 190.497 388.805C188.89 388.477 184.389 387.512 184.389 384.294C184.389 381.075 186.318 376.228 191.785 375.909C197.244 375.586 204.009 371.066 204.009 371.066C204.009 371.066 227.455 349.457 232.614 343.326C237.755 337.212 237.111 331.727 236.158 328.172C235.178 324.626 227.46 321.713 225.214 320.11C222.967 318.499 220.717 317.857 220.717 317.857C220.717 317.857 213.965 322.368 211.714 325.596C209.464 328.827 204.314 329.137 201.432 329.784C198.215 330.753 194.994 328.172 194.027 326.237C193.065 324.312 189.217 321.713 185.351 320.425C181.49 319.145 176.993 316.556 175.069 312.686C173.136 308.817 168.313 297.847 166.384 297.847C164.456 297.847 158.353 295.93 158.03 294.31C157.704 292.694 158.984 291.729 158.984 291.729C158.984 291.729 149.032 286.894 148.066 284.628C147.095 282.366 157.064 274.959 164.134 273.666C171.212 272.369 178.273 261.084 187.92 258.185C197.566 255.281 201.745 256.246 203.356 256.573C204.967 256.896 208.811 253.35 213.321 254.32C217.817 255.281 224.904 250.123 224.904 250.123C224.904 250.123 253.501 224.641 264.436 208.522C275.367 192.386 331.61 151.007 388.751 189.473C405.145 183.341 393.5 155.065 393.5 129.565C393.5 104.065 425.064 68.2523 449.66 74.7811C457.897 76.9676 460.365 84.9768 450.958 86.431C441.555 87.8809 415.857 93.431 410.5 129.565C407.596 149.152 428.53 180.756 402.489 212.693V212.701Z" fill="white"/>
</svg>
